<?xml version="1.0" standalone="no"?>
<!DOCTYPE svg PUBLIC "-//W3C//DTD SVG 20010904//EN"
 "http://www.w3.org/TR/2001/REC-SVG-20010904/DTD/svg10.dtd">
<svg version="1.0" xmlns="http://www.w3.org/2000/svg"
 width="1024.000000pt" height="1024.000000pt" viewBox="0 0 1024.000000 1024.000000"
 preserveAspectRatio="xMidYMid meet">

<g transform="translate(0.000000,1024.000000) scale(0.100000,-0.100000)"
fill="#FFA500" stroke="none">
<path d="M4885 8510 c-71 -4 -164 -13 -205 -20 -128 -21 -282 -50 -350 -67
-93 -22 -383 -113 -395 -124 -5 -5 -15 -9 -23 -9 -7 0 -34 -9 -60 -21 -26 -11
-74 -33 -107 -47 -292 -129 -601 -317 -832 -507 -99 -81 -394 -382 -474 -484
-229 -292 -388 -558 -517 -861 -244 -577 -313 -1238 -197 -1890 99 -558 359
-1114 726 -1557 156 -188 403 -425 579 -555 450 -332 967 -555 1515 -653 359
-63 828 -61 1190 6 555 103 1107 351 1535 688 828 653 1300 1631 1300 2693 0
613 -154 1163 -479 1713 -72 123 -121 193 -259 375 -116 152 -454 493 -592
596 -103 77 -284 200 -340 230 -19 10 -49 29 -67 40 -49 32 -347 178 -436 213
-296 118 -601 195 -912 231 -113 13 -446 19 -600 10z m1093 -534 c419 -115
723 -460 787 -893 19 -133 19 -170 -7 -333 -11 -74 -21 -155 -22 -180 l-1 -45
205 -6 c206 -5 208 -6 317 -50 28 -11 35 -11 47 1 8 8 51 102 97 208 45 106
88 200 95 210 12 16 14 16 27 -2 7 -10 38 -75 67 -145 30 -69 62 -144 71 -166
10 -22 29 -69 43 -104 41 -102 49 -111 91 -101 19 4 37 4 40 0 5 -9 -68 -155
-117 -232 -49 -79 -64 -56 -29 45 12 33 16 59 10 62 -13 9 -11 49 3 63 10 10
9 19 -4 45 -9 17 -29 64 -43 102 -46 120 -126 299 -139 313 -10 10 -21 -6 -55
-80 -64 -136 -111 -245 -111 -255 0 -4 29 -39 64 -76 110 -117 166 -261 166
-426 l0 -68 -62 -77 -63 -77 -7 138 c-4 78 -13 159 -22 186 -42 132 -138 247
-251 303 -43 20 -81 29 -158 36 -101 10 -271 7 -282 -4 -3 -3 -8 -86 -10 -184
-3 -153 -6 -186 -24 -224 -26 -59 -93 -128 -150 -153 -61 -28 -189 -30 -242
-3 -60 28 -115 82 -143 138 -25 50 -26 58 -26 235 l0 183 -26 10 c-30 12
-1943 14 -1960 2 -7 -4 -13 -72 -16 -189 -5 -172 -7 -186 -32 -237 -86 -175
-317 -220 -457 -89 -26 25 -60 68 -74 96 -24 49 -25 58 -25 229 0 165 -1 178
-19 188 -24 13 -231 13 -329 0 -138 -18 -280 -120 -342 -246 -59 -121 -62
-141 -66 -474 -5 -361 -5 -361 -92 -386 -50 -15 -63 -15 -161 1 -214 35 -222
38 -243 76 -29 54 -25 63 25 54 23 -4 90 -10 149 -13 92 -6 108 -5 108 8 0 8
-63 125 -140 260 -77 135 -140 251 -140 258 0 6 8 12 19 12 38 0 267 -42 299
-55 51 -22 58 -37 -142 330 -42 77 -79 151 -83 164 -6 23 -5 24 40 17 l47 -7
19 43 c11 24 47 104 79 178 90 205 144 310 155 303 8 -5 57 -103 175 -353 46
-98 41 -95 104 -67 87 39 146 47 333 47 95 0 180 3 189 6 13 5 16 25 16 118 0
106 2 117 31 174 53 108 143 162 265 162 66 0 84 -4 134 -31 32 -17 71 -47 87
-67 56 -69 64 -95 70 -227 l6 -123 36 -6 c20 -3 155 -6 302 -6 276 0 299 3
279 41 -26 48 -60 165 -76 258 -44 271 29 551 205 778 114 147 229 240 395
318 158 75 263 95 461 90 110 -3 160 -9 233 -29z m-1509 -342 c9 -24 24 -40
47 -51 19 -9 34 -19 34 -23 0 -3 -16 -14 -34 -24 -19 -10 -42 -34 -51 -52 -20
-43 -31 -43 -45 0 -8 26 -22 40 -50 53 -22 10 -40 21 -40 25 0 3 16 12 35 18
26 8 41 23 55 51 11 21 24 39 28 39 4 0 14 -16 21 -36z m-686 12 c18 -7 45
-28 62 -45 24 -26 30 -41 33 -95 5 -78 -15 -127 -67 -161 -41 -27 -107 -41
-147 -31 l-28 7 47 40 c89 77 83 199 -13 256 -17 9 -30 21 -30 24 0 20 100 24
143 5z m-431 -708 l31 -14 -37 -22 c-22 -13 -43 -36 -52 -57 -14 -34 -34 -47
-34 -23 0 21 -49 76 -75 82 -35 9 -31 23 9 40 24 10 42 28 56 57 l22 42 25
-45 c14 -26 38 -51 55 -60z m3792 61 c12 -27 29 -46 52 -56 19 -9 34 -19 34
-22 0 -3 -15 -13 -33 -21 -19 -9 -39 -30 -50 -52 -21 -43 -33 -48 -42 -15 -11
33 -44 65 -76 72 -40 9 -36 19 11 38 32 12 45 25 58 56 9 23 20 41 23 41 3 0
13 -18 23 -41z m-2705 -23 c18 -22 -4 -58 -32 -54 -25 3 -34 32 -17 53 16 19
34 19 49 1z m3497 -1070 c-8 -33 -152 -275 -211 -356 -27 -36 -73 -94 -105
-130 -31 -36 -78 -94 -106 -129 l-49 -64 -3 96 c-3 115 15 195 64 284 75 134
240 273 373 313 41 13 44 12 37 -14z m-4128 -222 l22 -6 0 -233 c0 -226 -1
-233 -21 -238 -11 -3 -104 -3 -207 -1 -212 5 -235 0 -240 -53 -6 -64 -17 -63
565 -63 l522 0 3 -217 c2 -120 0 -228 -4 -240 -7 -22 -13 -23 -106 -23 -54 0
-102 -3 -105 -7 -4 -3 14 -26 40 -49 l48 -43 92 -1 c88 0 94 2 173 42 86 44
88 56 13 57 l-33 1 0 240 0 240 250 0 250 0 0 -157 c0 -87 4 -164 9 -172 7
-11 17 -9 52 10 l44 24 3 148 3 147 255 0 255 0 57 30 c68 35 92 53 92 69 0 6
-9 11 -20 11 -19 0 -20 7 -20 240 l0 240 23 5 c12 3 126 4 252 3 l230 -3 5
-117 c3 -64 8 -119 12 -123 3 -4 25 -3 49 2 38 7 44 12 52 43 5 19 7 64 3 99
-10 109 -35 101 339 101 313 0 325 -1 335 -20 7 -13 10 -454 8 -1437 l-3
-1418 -26 -55 c-31 -65 -84 -121 -142 -153 l-42 -22 -1465 0 -1465 0 -3 78 -3
77 423 0 c2388 3 2445 4 2467 24 25 23 27 49 5 70 -13 14 -47 16 -214 16 -110
0 -201 4 -205 9 -3 5 -8 113 -12 240 l-6 231 209 0 c173 0 213 3 232 16 27 19
28 55 3 79 -18 15 -42 17 -225 16 l-206 -2 0 38 c-1 21 -2 128 -3 238 l-2 200
209 3 c227 3 246 7 246 58 0 48 -28 54 -247 54 l-203 0 -2 208 c-1 114 -2 221
-2 237 l-1 30 209 3 c178 2 213 5 228 19 22 20 23 46 2 67 -13 14 -48 16 -225
16 l-209 0 -1 23 c0 12 0 124 0 249 l0 227 31 28 c25 22 33 39 37 75 5 42 3
50 -25 78 -48 48 -70 42 -290 -72 -109 -55 -372 -190 -587 -298 -214 -108
-399 -201 -410 -208 -11 -6 -112 -57 -225 -113 -410 -202 -756 -381 -777 -401
-13 -12 -23 -27 -23 -33 0 -7 -10 -36 -22 -64 -26 -63 -26 -63 -98 74 -29 55
-57 106 -63 114 -6 7 -13 55 -15 106 l-4 93 63 7 c35 4 67 12 71 18 7 12 -173
369 -190 375 -5 1 -45 -66 -88 -150 -42 -84 -84 -166 -92 -181 -20 -39 -9 -57
32 -57 19 0 47 -5 62 -10 26 -10 26 -11 22 -99 -4 -85 -6 -93 -71 -224 l-67
-137 -160 0 c-147 0 -160 -1 -170 -19 -16 -31 -12 -59 12 -75 18 -13 54 -16
180 -16 105 0 158 -4 158 -11 0 -5 -23 -58 -51 -117 -28 -59 -64 -134 -79
-167 -15 -33 -51 -109 -79 -168 -28 -60 -49 -113 -45 -118 3 -5 39 -9 80 -9
90 0 89 12 4 -160 -125 -250 -191 -394 -188 -409 3 -14 31 -16 231 -19 l228
-2 10 -27 c6 -15 7 -49 4 -75 -6 -44 -9 -48 -41 -54 -19 -3 -125 -4 -237 -2
-238 5 -261 12 -337 95 -86 94 -80 -29 -80 1578 0 782 3 1425 7 1428 8 9 630
9 661 1z m640 -236 l2 -238 -227 -2 c-126 -1 -239 -2 -253 -2 l-25 -1 -3 230
c-1 126 0 235 3 242 3 11 57 13 252 11 l248 -3 3 -237z m611 233 c11 -7 13
-52 12 -237 -1 -126 -4 -230 -6 -232 -3 -3 -385 -5 -477 -2 -17 0 -18 18 -18
233 0 129 3 237 7 240 10 10 466 8 482 -2z m619 1 c12 -8 15 -114 12 -439 l0
-33 -255 0 -255 0 0 234 c0 178 3 236 13 239 21 9 471 7 485 -1z m2272 -266
c0 -12 -19 -51 -70 -141 -67 -120 -168 -231 -310 -339 -82 -64 -90 -62 -83 18
15 163 159 348 338 434 94 46 125 53 125 28z m-1642 -578 l-3 -223 -250 0
-250 0 -5 45 c-4 38 -8 44 -25 42 -36 -7 -75 -36 -75 -57 0 -13 -23 -38 -62
-70 l-63 -49 30 -8 c17 -4 42 -9 57 -12 36 -8 40 -41 34 -256 -3 -96 -6 -185
-6 -197 l0 -23 -255 0 -255 0 2 232 3 232 75 39 c178 93 1036 526 1043 526 4
1 6 -99 5 -221z m-3683 -11 c8 -26 10 -47 6 -47 -11 0 -71 117 -63 124 11 12
43 -30 57 -77z m-230 -162 c168 -94 289 -238 341 -405 18 -58 28 -214 17 -265
l-9 -40 -51 90 c-51 89 -97 152 -200 274 -29 34 -72 90 -95 123 -48 72 -138
242 -138 263 0 19 59 2 135 -40z m5575 36 c0 -32 -218 -285 -405 -471 -130
-129 -201 -210 -255 -292 -26 -40 -45 -50 -36 -20 2 9 8 37 11 62 9 60 58 178
112 270 64 109 149 207 249 288 123 99 324 200 324 163z m-1660 -431 l0 -240
-255 0 -255 0 0 240 0 240 255 0 255 0 0 -240z m-1240 -40 l0 -200 -250 0
-250 0 0 80 0 80 153 77 c188 95 330 163 340 163 4 0 7 -90 7 -200z m2877 -79
c-12 -47 -108 -191 -177 -264 -41 -44 -131 -124 -200 -178 -134 -105 -193
-158 -252 -228 -21 -25 -41 -41 -45 -37 -10 10 14 120 43 198 78 207 311 423
549 509 67 24 89 24 82 0z m-5481 -35 c148 -70 265 -224 293 -387 12 -70 15
-242 5 -252 -4 -4 -15 13 -26 36 -67 149 -83 172 -204 296 -67 69 -131 137
-142 151 -24 32 -87 148 -97 179 -7 23 -6 24 43 19 28 -3 84 -21 128 -42z
m1988 -18 c10 -41 6 -72 -14 -106 -25 -40 -25 -58 -2 -71 16 -9 17 -29 14
-237 -2 -192 -5 -231 -19 -246 -14 -16 -14 -20 3 -45 14 -21 19 -55 24 -143
l5 -115 46 -67 c25 -38 49 -65 52 -61 4 3 7 78 7 165 l0 158 250 0 249 0 6
-33 c4 -19 5 -122 2 -231 -3 -156 -7 -200 -18 -207 -8 -5 -152 -9 -321 -9
-262 0 -309 2 -322 15 -8 9 -36 59 -62 113 -25 53 -73 151 -105 216 -33 66
-59 123 -59 128 0 4 36 8 80 8 61 0 80 3 80 14 0 12 -21 57 -185 403 -82 170
-82 171 -53 178 13 3 49 4 81 1 63 -5 71 3 36 41 -19 19 -20 25 -9 39 15 17
197 113 216 113 7 1 14 -9 18 -21z m617 -210 c4 -175 -4 -434 -14 -440 -14 -9
-448 -11 -471 -2 -14 5 -16 36 -16 240 l0 234 250 0 250 0 1 -32z m622 6 c7
-37 0 -435 -8 -443 -4 -3 -118 -6 -253 -6 l-247 0 -3 225 c-1 123 0 230 2 237
4 10 62 13 255 13 l249 0 5 -26z m617 -209 l0 -234 -32 -6 c-18 -3 -132 -5
-253 -3 l-220 3 -3 238 -2 237 255 0 255 0 0 -235z m1700 -84 c0 -5 -19 -37
-41 -71 -65 -96 -199 -224 -383 -364 -92 -71 -198 -156 -233 -190 -36 -33 -69
-62 -74 -64 -13 -5 0 54 29 128 34 89 117 212 194 287 124 122 237 194 398
254 78 29 110 35 110 20z m-2316 -295 c11 -43 5 -430 -6 -443 -8 -10 -68 -13
-243 -13 -129 0 -240 3 -249 6 -14 5 -16 36 -16 240 l0 234 254 0 254 0 6 -24z
m614 -213 l-3 -238 -230 -3 c-126 -1 -240 0 -252 3 l-23 5 0 235 0 235 255 0
255 0 -2 -237z"/>
<path d="M3780 6818 c-33 -17 -51 -35 -68 -68 -22 -45 -23 -49 -20 -375 3
-307 4 -333 23 -370 51 -102 190 -106 254 -7 24 36 24 36 25 382 l1 345 -25
38 c-25 37 -90 77 -126 77 -11 0 -40 -10 -64 -22z"/>
<path d="M6370 6818 c-25 -13 -55 -38 -67 -57 -23 -34 -23 -38 -23 -375 0
-334 1 -342 23 -380 12 -22 37 -49 55 -59 70 -41 158 -15 199 59 22 38 23 46
23 372 0 356 -2 375 -51 418 -23 20 -79 44 -103 44 -7 0 -32 -10 -56 -22z"/>
<path d="M6642 5188 c-15 -19 -42 -76 -42 -88 0 -6 43 -10 120 -10 107 0 122
2 140 20 25 25 26 52 2 73 -23 21 -203 25 -220 5z"/>
<path d="M3372 4598 c-19 -19 -15 -66 7 -78 21 -11 209 -14 236 -4 12 5 55 75
55 91 0 2 -64 3 -143 3 -98 0 -147 -4 -155 -12z"/>
</g>
</svg>
