<?xml version="1.0" standalone="no"?>
<!DOCTYPE svg PUBLIC "-//W3C//DTD SVG 20010904//EN"
 "http://www.w3.org/TR/2001/REC-SVG-20010904/DTD/svg10.dtd">
<svg version="1.0" xmlns="http://www.w3.org/2000/svg"
 width="1024.000000pt" height="1024.000000pt" viewBox="0 0 1024.000000 1024.000000"
 preserveAspectRatio="xMidYMid meet">

<g transform="translate(0.000000,1024.000000) scale(0.100000,-0.100000)"
fill="#0000" stroke="none">
<path d="M0 5120 l0 -5120 5120 0 5120 0 0 5120 0 5120 -5120 0 -5120 0 0
-5120z m6861 2664 c10 -12 16 -57 19 -143 l5 -126 184 -2 c155 -1 186 -4 200
-17 13 -14 16 -48 19 -221 l3 -205 182 0 c100 0 192 -3 203 -6 12 -3 27 -17
33 -30 8 -18 11 -562 11 -2002 0 -1774 -2 -1980 -16 -2000 -15 -21 -20 -22
-215 -22 l-199 0 0 -199 c0 -266 19 -245 -224 -249 l-186 -3 0 -115 c0 -101
-2 -116 -20 -134 -20 -20 -33 -20 -1801 -20 -1142 0 -1787 4 -1799 10 -31 16
-41 66 -34 167 l7 93 -178 0 c-243 0 -225 -19 -225 247 l0 203 -202 0 c-112 0
-208 4 -215 8 -6 4 -17 20 -22 35 -16 41 -15 3932 0 3976 7 20 20 33 35 37 13
3 109 5 214 3 l190 -4 0 210 c0 151 3 214 12 223 8 8 66 12 195 12 l183 0 0
119 c0 105 2 121 21 145 l20 26 1794 0 c1653 0 1794 -1 1806 -16z"/>
<path d="M4123 6859 c3 -72 7 -132 9 -132 2 -1 67 -1 146 1 l142 3 0 130 0
129 -152 0 -151 0 6 -131z"/>
<path d="M6210 6860 l0 -130 135 0 135 0 0 130 0 130 -135 0 -135 0 0 -130z"/>
<path d="M6720 6860 l0 -130 139 0 140 0 3 123 c2 67 2 125 0 130 -2 4 -66 7
-143 7 l-139 0 0 -130z"/>
<path d="M3380 6356 c0 -88 -5 -86 151 -86 88 0 108 -3 113 -16 3 -9 6 -105 6
-214 l0 -197 -67 -6 c-38 -3 -90 -4 -118 -2 -27 2 -59 4 -70 4 -42 2 -55 48
-55 190 l0 130 -105 -2 -105 -2 2 -420 3 -420 123 -3 122 -3 0 -104 0 -105
375 0 375 0 0 108 0 107 143 0 142 0 3 423 2 422 -147 -2 -147 -3 3 138 3 137
-376 0 -376 0 0 -74z"/>
<path d="M5956 6414 c-11 -29 -6 -123 7 -131 6 -4 64 -10 127 -13 l115 -5 3
-190 c1 -104 0 -200 -3 -212 -5 -23 -8 -23 -150 -23 -179 0 -170 -10 -170 180
l0 135 -82 3 -83 3 0 -426 0 -427 124 4 124 3 6 -65 c3 -36 6 -84 6 -107 l0
-43 364 0 c323 0 365 2 370 16 3 9 6 57 6 107 l0 92 137 0 138 0 3 423 2 423
-99 -7 c-54 -4 -119 -4 -145 0 l-46 7 0 135 0 134 -374 0 c-332 0 -375 -2
-380 -16z"/>
<path d="M3382 4328 l3 -363 128 2 127 1 0 -106 c0 -162 -8 -152 121 -152
l109 0 0 -85 0 -85 95 0 94 0 3 -102 3 -103 158 -3 157 -3 0 -64 0 -64 678 2
677 2 3 63 3 62 154 0 155 0 0 105 0 104 88 3 c60 2 87 7 88 16 1 6 2 44 3 82
l1 70 120 0 120 0 0 125 0 125 125 0 125 0 0 365 0 365 -250 0 -250 0 0 -235
0 -235 -95 -2 c-52 -1 -103 -2 -112 -2 -16 -1 -19 -16 -23 -126 l-5 -125 -121
-3 -121 -3 -7 -76 c-3 -42 -6 -93 -6 -115 l0 -38 -654 0 -654 0 -7 31 c-4 17
-5 67 -3 112 l3 82 -132 3 -132 3 -3 127 -3 127 -127 3 -128 3 0 234 0 235
-255 0 -255 0 2 -362z"/>
<path d="M3420 3571 c0 -21 -3 -65 -6 -98 -9 -85 1 -93 121 -93 122 0 125 3
125 119 0 54 -4 91 -12 99 -8 8 -49 12 -120 12 l-108 0 0 -39z"/>
<path d="M3115 3321 c-3 -6 -2 -71 1 -145 l7 -136 134 0 133 0 0 123 c0 67 3
132 6 145 l6 22 -140 0 c-78 0 -143 -4 -147 -9z"/>
<path d="M6720 3185 l0 -145 145 0 145 0 0 145 0 145 -145 0 -145 0 0 -145z"/>
</g>
</svg>
